<svg xmlns="http://www.w3.org/2000/svg" x="0px" y="0px"
width="64" height="64"
viewBox="0 0 172 172"
style=" fill:#000000;"><g fill="none" fill-rule="nonzero" stroke="none" stroke-width="1" stroke-linecap="butt" stroke-linejoin="miter" stroke-miterlimit="10" stroke-dasharray="" stroke-dashoffset="0" font-family="none" font-weight="none" font-size="none" text-anchor="none" style="mix-blend-mode: normal"><path d="M0,172v-172h172v172z" fill="none"></path><path d="M86,172c-47.49649,0 -86,-38.50351 -86,-86v0c0,-47.49649 38.50351,-86 86,-86v0c47.49649,0 86,38.50351 86,86v0c0,47.49649 -38.50351,86 -86,86z" fill="#2ecc71"></path><g fill="#000000"><path d="M117.71586,81.70336c0,-1.72 -0.5375,-3.38625 -1.505,-4.81063c2.49937,-1.6125 3.95062,-4.3 4.00437,-7.2025c0,-4.64937 -3.92375,-8.65375 -8.6,-8.65375h-10.07812v-5.9125c1.1825,-0.72562 2.2575,-1.53187 3.27875,-2.4725c0.02687,-0.02687 0.05375,-0.05375 0.05375,-0.08062c6.69187,-6.69188 6.69187,-18.03312 0,-24.725c-1.6125,-1.6125 -3.52063,-2.82188 -5.99313,-3.81625l-2.12312,-0.86c-0.80625,-0.3225 -1.72,-0.24188 -2.44563,0.26875c-0.72562,0.51063 -1.15563,1.34375 -1.12875,2.23063v10.29313c0,0.37625 -0.16125,0.5375 -0.5375,0.5375c-0.37625,0 -0.5375,-0.16125 -0.5375,-0.5375v-10.29313c-0.05375,-1.53187 -1.31688,-2.74125 -2.84875,-2.6875c-0.3225,0 -0.61812,0.08063 -0.91375,0.18812l-2.12313,0.83313c-2.2575,0.83312 -4.3,2.12313 -6.02,3.81625c-3.27875,3.27875 -5.07937,7.74 -5.0525,12.3625c-0.02687,4.6225 1.77375,9.08375 5.0525,12.38938c0.13438,0.13437 0.24187,0.1075 0.37625,0.37625h-10.56187c-10.07813,0 -18.19438,8.19688 -18.19438,18.275c0,0.02687 0,0.05375 0,0.05375v24.75188c0,10.105 8.11625,18.46313 18.22125,18.46313h13.49125v2.41875c-1.15563,0.72562 -2.2575,1.53187 -3.27875,2.4725c-0.02688,0.02688 -0.02688,0.05375 -0.05375,0.08063c-6.71875,6.88 -6.71875,17.87188 0,24.725c1.6125,1.6125 3.52063,2.82188 5.99313,3.81625l2.12312,0.86c0.86,0.3225 1.80063,0.24188 2.55312,-0.26875c0.7525,-0.48375 1.20938,-1.31687 1.23625,-2.23063v-10.29312c0,-0.37625 0.16125,-0.5375 0.5375,-0.5375c0.37625,0 0.5375,0.16125 0.5375,0.5375v10.29312c-0.02688,0.88688 0.40312,1.72 1.12875,2.23063c0.72562,0.51063 1.63938,0.59125 2.44563,0.26875l2.09625,-0.83312c2.2575,-0.83312 4.3,-2.12312 5.99312,-3.81625c6.69188,-6.69188 6.71875,-18.03313 0,-24.725c-0.9675,-1.02125 -2.12312,-1.88125 -3.35937,-2.55312v-2.41875h4.03125c3.44,0 7.44438,-3.81625 7.44438,-8.65375c0,-1.66625 -0.51062,-3.30562 -1.42437,-4.70312c2.39188,-1.72 3.81625,-4.46125 3.87,-7.39062c0,-1.77375 -0.56438,-3.49375 -1.58563,-4.91813c2.41875,-1.6125 3.87,-4.3 3.89687,-7.14875zM84.06836,31.60836c0.77937,-0.77938 1.66625,-1.45125 2.6875,-1.935v6.26188c0,3.27875 2.63375,5.9125 5.9125,5.9125c3.27875,0 5.9125,-2.63375 5.9125,-5.9125v-6.235c0.80625,0.5375 1.80062,1.15563 2.55312,1.90813c4.6225,4.6225 4.6225,12.44313 0,17.0925c-0.99438,0.94063 -2.15,1.72 -3.38625,2.28438c-0.9675,0.43 -1.58563,1.3975 -1.58563,2.44562v7.57875h-7.25625v-7.525c0,-1.04813 -0.59125,-2.01562 -1.55875,-2.44562c-1.23625,-0.5375 -2.365,-1.29 -3.30562,-2.2575c-4.64937,-4.67625 -4.6225,-12.52375 0.02688,-17.17312zM101.10711,140.39836c-0.77938,0.72563 -1.63938,1.37063 -2.55312,1.935v-6.26188c0,-3.27875 -2.63375,-5.9125 -5.9125,-5.9125c-3.27875,0 -5.9125,2.63375 -5.9125,5.9125v6.235c-0.99437,-0.48375 -1.88125,-1.12875 -2.6875,-1.90813c-4.6225,-4.6225 -4.67625,-12.44312 -0.05375,-17.0925c0.9675,-0.94063 2.09625,-1.72 3.35938,-2.28438c0.9675,-0.43 1.55875,-1.3975 1.53187,-2.44563v-4.085h7.25625v4.05812c0,1.04813 0.61813,2.01563 1.55875,2.44562c1.23625,0.5375 2.39188,1.29 3.35937,2.2575c4.64937,4.64938 4.70313,12.49688 0.05375,17.14625zM111.58836,72.83461h-3.25188c-1.3975,0 -2.63375,1.02125 -2.76812,2.41875c-0.16125,1.58562 1.10188,2.95625 2.6875,2.95625h0.08062l0.18813,0.05375c0.3225,0.08062 0.67188,0.13438 0.99438,0.16125c1.55875,0.215 2.84875,1.66625 2.84875,3.25188c0,1.72 -1.505,3.27875 -3.225,3.27875h-3.3325c-1.47813,0 -2.6875,1.1825 -2.6875,2.63375c0,1.34375 0.94062,2.44562 2.20375,2.66062c0.24188,0.05375 0.48375,0.1075 0.69875,0.18812c0.24187,0.08062 0.51062,0.13438 0.77937,0.13438c1.72,0 3.225,1.53187 3.225,3.25187c0,1.80062 -1.55875,2.98312 -2.06938,3.25187h-4.48813c-1.47812,-0.02688 -2.66062,1.15563 -2.6875,2.60688c-0.02687,1.31687 0.94062,2.44563 2.20375,2.66062c0.16125,0.02688 0.3225,0.08062 0.48375,0.13438c0.26875,0.08062 0.51063,0.13437 0.77938,0.16125c1.23625,0.05375 2.39187,0.69875 2.95625,1.80062c1.23625,2.52625 -1.02125,4.35375 -1.72,4.70313h-35.475c-7.095,0 -12.84625,-5.75125 -12.84625,-12.84625v-24.99375c-0.05375,-7.095 5.67062,-12.9 12.76562,-12.95375c0.02688,0 0.05375,0 0.08063,0h13.49125v2.6875h-7.04125c-1.3975,0 -2.63375,1.02125 -2.76813,2.41875c-0.16125,1.58563 1.10188,2.95625 2.6875,2.95625h35.09875c1.66625,0 3.14438,1.23625 3.30562,2.9025c0.215,1.90813 -1.31687,3.52062 -3.19812,3.52062z"></path></g><path d="M86,172c-47.49649,0 -86,-38.50351 -86,-86v0c0,-47.49649 38.50351,-86 86,-86v0c47.49649,0 86,38.50351 86,86v0c0,47.49649 -38.50351,86 -86,86z" fill="none"></path><path d="M86,168.56c-45.59663,0 -82.56,-36.96337 -82.56,-82.56v0c0,-45.59663 36.96337,-82.56 82.56,-82.56v0c45.59663,0 82.56,36.96337 82.56,82.56v0c0,45.59663 -36.96337,82.56 -82.56,82.56z" fill="none"></path><path d="M86,172c-47.49649,0 -86,-38.50351 -86,-86v0c0,-47.49649 38.50351,-86 86,-86v0c47.49649,0 86,38.50351 86,86v0c0,47.49649 -38.50351,86 -86,86z" fill="none"></path><path d="M86,168.56c-45.59663,0 -82.56,-36.96337 -82.56,-82.56v0c0,-45.59663 36.96337,-82.56 82.56,-82.56v0c45.59663,0 82.56,36.96337 82.56,82.56v0c0,45.59663 -36.96337,82.56 -82.56,82.56z" fill="none"></path><path d="M86,172c-47.49649,0 -86,-38.50351 -86,-86v0c0,-47.49649 38.50351,-86 86,-86v0c47.49649,0 86,38.50351 86,86v0c0,47.49649 -38.50351,86 -86,86z" fill="none"></path><path d="M86,168.56c-45.59663,0 -82.56,-36.96337 -82.56,-82.56v0c0,-45.59663 36.96337,-82.56 82.56,-82.56v0c45.59663,0 82.56,36.96337 82.56,82.56v0c0,45.59663 -36.96337,82.56 -82.56,82.56z" fill="none"></path><path d="M86,172c-47.49649,0 -86,-38.50351 -86,-86v0c0,-47.49649 38.50351,-86 86,-86v0c47.49649,0 86,38.50351 86,86v0c0,47.49649 -38.50351,86 -86,86z" fill="none"></path><path d="M86,168.56c-45.59663,0 -82.56,-36.96337 -82.56,-82.56v0c0,-45.59663 36.96337,-82.56 82.56,-82.56v0c45.59663,0 82.56,36.96337 82.56,82.56v0c0,45.59663 -36.96337,82.56 -82.56,82.56z" fill="none"></path></g></svg>