
 <svg version="1.0" xmlns="http://www.w3.org/2000/svg"
 width="840.000000pt" height="859.000000pt" viewBox="0 0 840.000000 859.000000"
 preserveAspectRatio="xMidYMid meet">
<g transform="translate(0.000000,859.000000) scale(0.100000,-0.100000)"
fill="#00cf5d" stroke="none">
<path d="M4437 8545 c-836 -136 -1448 -911 -1377 -1744 50 -579 379 -1073 889
-1335 184 -94 367 -149 596 -179 17 -2 -584 -4 -1335 -5 l-1365 0 108 19 c367
64 679 268 882 574 101 153 169 324 201 505 24 141 15 389 -20 526 -112 445
-444 800 -878 938 -160 50 -222 60 -398 60 -232 -1 -395 -40 -600 -145 -178
-91 -374 -264 -481 -425 -145 -216 -217 -436 -226 -694 -20 -546 299 -1041
810 -1257 99 -42 246 -80 347 -91 62 -7 70 -10 45 -16 -163 -40 -258 -90 -354
-187 -74 -73 -121 -146 -160 -247 l-26 -67 -3 -1433 c-3 -1603 -7 -1496 70
-1646 58 -111 163 -216 274 -274 143 -73 153 -75 650 -79 l442 -4 -394 -655
-394 -654 329 0 328 0 493 616 c476 594 494 615 509 595 9 -11 230 -288 491
-615 l475 -595 328 0 c180 -1 327 1 327 3 0 2 -176 296 -390 652 l-391 649
608 6 c673 6 653 4 800 74 90 44 213 158 266 246 21 35 50 100 65 144 l27 80
0 1430 0 1430 -28 82 c-72 213 -249 379 -463 433 -68 18 -114 20 -388 21 -305
1 -309 1 -217 15 373 54 674 205 942 473 179 180 300 364 383 584 106 282 130
616 65 914 -137 631 -636 1127 -1274 1265 -122 26 -460 34 -588 13z m468 -660
c184 -38 351 -130 490 -270 460 -465 345 -1246 -228 -1555 -553 -299 -1241
-15 -1415 585 -138 472 93 977 536 1176 187 84 407 107 617 64z m-3020 -650
c162 -34 335 -157 418 -296 63 -107 90 -206 90 -334 1 -129 -16 -204 -70 -315
-53 -108 -168 -222 -283 -279 -330 -162 -723 -35 -880 284 -53 108 -70 179
-70 300 0 121 17 192 69 300 130 263 427 403 726 340z"/>
<path d="M7155 4791 l-810 -488 -2 -989 -2 -989 813 -487 c448 -269 817 -488
820 -488 3 0 6 884 6 1965 0 1081 -3 1965 -7 1964 -5 0 -372 -220 -818 -488z"/>
</g>
</svg>