<svg xmlns="http://www.w3.org/2000/svg" x="0px" y="0px"
width="50" height="50"
viewBox="0 0 172 172"
style=" fill:#000000;"><g fill="none" fill-rule="nonzero" stroke="none" stroke-width="1" stroke-linecap="butt" stroke-linejoin="miter" stroke-miterlimit="10" stroke-dasharray="" stroke-dashoffset="0" font-family="none" font-weight="none" font-size="none" text-anchor="none" style="mix-blend-mode: normal"><path d="M0,172v-172h172v172z" fill="none"></path><path d="M86,172c-47.49649,0 -86,-38.50351 -86,-86v0c0,-47.49649 38.50351,-86 86,-86v0c47.49649,0 86,38.50351 86,86v0c0,47.49649 -38.50351,86 -86,86z" fill="#2ecc71"></path><g fill="#000000"><path d="M51.8064,24.94c-2.83357,0 -4.8848,2.05123 -4.8848,4.8848v41.5208c0,2.83357 2.05123,4.8848 4.8848,4.8848h68.3872c2.83357,0 4.8848,-2.05123 4.8848,-4.8848v-41.5208c0,-2.83357 -2.05123,-4.8848 -4.8848,-4.8848zM81.1152,39.5944l12.44097,11.75405l-5.87702,0.45795l2.97667,6.33497l-2.4424,0.99222l-2.67138,-6.33497l-4.42685,4.12155zM68.9032,78.6728v4.8848h34.1936v-4.8848zM27.3824,86c-1.34523,0 -2.4424,1.09717 -2.4424,2.4424v7.3272c0,1.35477 1.09717,2.4424 2.4424,2.4424h117.2352c1.35477,0 2.4424,-1.08763 2.4424,-2.4424v-7.3272c0,-1.34523 -1.08763,-2.4424 -2.4424,-2.4424zM29.8248,103.0968v41.5208c0,1.35477 1.09717,2.4424 2.4424,2.4424h7.3272c1.34523,0 2.4424,-1.08763 2.4424,-2.4424v-41.5208zM129.9632,103.0968v41.5208c0,1.35477 1.08763,2.4424 2.4424,2.4424h7.3272c1.35477,0 2.4424,-1.08763 2.4424,-2.4424v-41.5208z"></path></g></g></svg>