<svg xmlns="http://www.w3.org/2000/svg" x="0px" y="0px"
width="30" height="30"
viewBox="0 0 172 172"
style=" fill:#000000;"><g fill="none" fill-rule="nonzero" stroke="none" stroke-width="1" stroke-linecap="butt" stroke-linejoin="miter" stroke-miterlimit="10" stroke-dasharray="" stroke-dashoffset="0" font-family="none" font-weight="none" font-size="none" text-anchor="none" style="mix-blend-mode: normal"><path d="M0,172v-172h172v172z" fill="none"></path><path d="M86,172.86c-47.97145,0 -86.86,-38.88855 -86.86,-86.86v0c0,-47.97145 38.88855,-86.86 86.86,-86.86h0c47.97145,0 86.86,38.88855 86.86,86.86v0c0,47.97145 -38.88855,86.86 -86.86,86.86z" fill="#2ecc71"></path><g fill="#000000"><path d="M39.09011,29.3359c-1.38757,-0.00245 -2.70167,0.62331 -3.57438,1.70208h-2.26646c-0.82706,-0.0117 -1.59635,0.42283 -2.01329,1.1372c-0.41694,0.71437 -0.41694,1.5979 0,2.31226c0.41694,0.71437 1.18623,1.1489 2.01329,1.1372h1.57667c0.06261,0.16221 0.13439,0.32073 0.215,0.47479l19.01854,36.35292l5.08833,19.39479l-3.52063,17.91667l-17.44187,22.22563l-1.29896,1.29896c-1.19821,1.15042 -1.68088,2.85871 -1.26185,4.46607c0.41903,1.60735 1.67427,2.86259 3.28162,3.28162c1.60735,0.41902 3.31565,-0.06364 4.46607,-1.26185l18.34667,-18.34667c0.44876,-0.44864 0.79956,-0.98551 1.03021,-1.57667l11.76229,-16.99396l10.06916,-8.05354l1.41542,16.72521v2.06938c-0.02339,1.65412 0.84567,3.19269 2.2744,4.02658c1.42874,0.83389 3.19579,0.83389 4.62453,0c1.42874,-0.83389 2.2978,-2.37246 2.2744,-4.02658v-27.52c0.0004,-1.24006 -0.50127,-2.42746 -1.3907,-3.29157c-0.88942,-0.86411 -2.09081,-1.3313 -3.33034,-1.2951c-0.25587,0.00856 -0.51058,0.03852 -0.76146,0.08958l-10.62459,2.12313l2.34708,-15.97271l6.29771,-8.17l3.37729,-15.02312c1.51651,0.73239 3.02976,1.50848 4.52396,2.365c21.70543,12.4423 40.84104,38.33418 40.84104,94.21479c-0.0117,0.82706 0.42283,1.59635 1.1372,2.01329c0.71437,0.41694 1.5979,0.41694 2.31226,0c0.71437,-0.41694 1.1489,-1.18623 1.1372,-2.01329c0,-56.94222 -20.03702,-84.94696 -43.14333,-98.19229c-2.06139,-1.18166 -4.15149,-2.21071 -6.24396,-3.17125c-0.35748,-1.15025 -1.1494,-2.15797 -2.31125,-2.74125c-1.3554,-0.67495 -2.8489,-0.54795 -4.10292,0.08958c-16.674,-6.02442 -32.55679,-6.13908 -42.59687,-6.06479c-0.86677,-1.07146 -2.16935,-1.69644 -3.5475,-1.70208zM45.14595,35.63361c9.80222,0.01834 23.3666,0.55158 37.47271,5.41979l-1.35271,4.80167c0,0 0.14333,3.46996 0.14333,5.82292c0,6.52587 -3.09125,12.27089 -7.82062,16.05333h-11.65479l-2.43667,-4.65833c0.42237,0.04745 0.84706,0.07137 1.27208,0.07167c6.33287,0 11.46667,-5.1338 11.46667,-11.46667c0,-6.33287 -5.1338,-11.46667 -11.46667,-11.46667c-4.20782,0.00277 -8.07612,2.30999 -10.07812,6.01104z"></path></g></g></svg>